<svg width="1024" height="1024" viewBox="0 0 1024 1024" fill="none" xmlns="http://www.w3.org/2000/svg">
<path fill-rule="evenodd" clip-rule="evenodd" d="M801.176 80.4636C804.724 76.7885 810.841 80.5195 810.705 86.2757L807.15 236.329C822.094 263.945 830.578 295.569 830.578 329.174C830.578 394.186 798.824 451.782 749.981 487.298C757.593 507.13 763.492 528.062 767.457 549.834C769.396 549.573 771.356 549.441 773.333 549.441C814.571 549.441 848 607.106 848 678.241C848 749.375 814.571 807.041 773.333 807.041C757.628 807.041 743.055 798.676 731.03 784.389C706.024 829.893 671.215 867.287 630.103 892.463C636.745 896.557 641.422 906.357 641.422 917.796C641.422 932.917 633.251 945.174 623.171 945.174C617.719 945.174 612.826 941.589 609.482 935.905C606.137 941.589 601.244 945.174 595.793 945.174C590.341 945.174 585.448 941.589 582.104 935.905C578.759 941.589 573.866 945.174 568.415 945.174C559.661 945.174 552.347 935.93 550.573 923.596C536.402 926.33 521.854 927.752 507.022 927.752C492.191 927.752 477.643 926.33 463.471 923.596C461.698 935.93 454.383 945.174 445.63 945.174C440.178 945.174 435.285 941.589 431.941 935.905C428.596 941.589 423.703 945.174 418.252 945.174C412.801 945.174 407.907 941.589 404.563 935.905C401.219 941.589 396.325 945.174 390.874 945.174C380.794 945.174 372.622 932.917 372.622 917.796C372.622 906.357 377.299 896.557 383.941 892.463C347.843 870.357 316.604 838.832 292.594 800.668C285.274 804.804 277.455 807.041 269.333 807.041C228.096 807.041 194.667 749.375 194.667 678.241C194.667 621.484 215.948 573.302 245.496 556.143C249.184 533.619 254.934 511.955 262.508 491.432C210.331 456.354 176 396.773 176 329.174C176 296.148 184.194 265.037 198.66 237.761L195.067 86.2783C194.93 80.5222 201.047 76.7909 204.596 80.4658L278.654 157.158C306.242 142.256 337.822 133.796 371.378 133.796C422.222 133.796 468.531 153.218 503.289 185.048C538.047 153.218 584.355 133.796 635.2 133.796C668.542 133.796 699.933 142.148 727.396 156.874L801.176 80.4636ZM609.067 452.374C677.108 452.374 732.267 397.215 732.267 329.174C732.267 261.132 677.108 205.974 609.067 205.974C564.128 205.974 524.809 230.035 503.289 265.976C481.769 230.035 442.45 205.974 397.511 205.974C329.47 205.974 274.311 261.132 274.311 329.174C274.311 397.215 329.47 452.374 397.511 452.374C442.45 452.374 481.769 428.313 503.289 392.371C524.809 428.313 564.128 452.374 609.067 452.374ZM508.485 551.641C506.176 555.641 500.402 555.641 498.093 551.641L447.055 463.241C444.746 459.241 447.632 454.241 452.251 454.241H554.327C558.946 454.241 561.832 459.241 559.523 463.241L508.485 551.641Z" fill="white"/>
<path fill-rule="evenodd" clip-rule="evenodd" d="M406.222 391.396C440.587 391.396 468.444 363.538 468.444 329.174C468.444 294.81 440.587 266.952 406.222 266.952C371.858 266.952 344 294.81 344 329.174C344 363.538 371.858 391.396 406.222 391.396ZM599.111 391.396C633.475 391.396 661.333 363.538 661.333 329.174C661.333 294.81 633.475 266.952 599.111 266.952C564.747 266.952 536.889 294.81 536.889 329.174C536.889 363.538 564.747 391.396 599.111 391.396Z" fill="white"/>
</svg>
